<svg xmlns="http://www.w3.org/2000/svg" xmlns:xlink="http://www.w3.org/1999/xlink" width="500" zoomAndPan="magnify" viewBox="0 0 375 374.999991" height="500" preserveAspectRatio="xMidYMid meet" version="1.0"><defs><g/><clipPath id="id1"><path d="M 123 112 L 253 112 L 253 217.449219 L 123 217.449219 Z M 123 112 " clip-rule="nonzero"/></clipPath><clipPath id="id2"><path d="M 106.882812 112 L 140 112 L 140 154 L 106.882812 154 Z M 106.882812 112 " clip-rule="nonzero"/></clipPath><clipPath id="id3"><path d="M 235 112 L 268.132812 112 L 268.132812 154 L 235 154 Z M 235 112 " clip-rule="nonzero"/></clipPath><clipPath id="id4"><path d="M 106.882812 72.699219 L 153 72.699219 L 153 113 L 106.882812 113 Z M 106.882812 72.699219 " clip-rule="nonzero"/></clipPath><clipPath id="id5"><path d="M 139 72.699219 L 176 72.699219 L 176 113 L 139 113 Z M 139 72.699219 " clip-rule="nonzero"/></clipPath><clipPath id="id6"><path d="M 171 72.699219 L 204 72.699219 L 204 113 L 171 113 Z M 171 72.699219 " clip-rule="nonzero"/></clipPath><clipPath id="id7"><path d="M 199 72.699219 L 236 72.699219 L 236 113 L 199 113 Z M 199 72.699219 " clip-rule="nonzero"/></clipPath><clipPath id="id8"><path d="M 222 72.699219 L 268.132812 72.699219 L 268.132812 113 L 222 113 Z M 222 72.699219 " clip-rule="nonzero"/></clipPath><clipPath id="id9"><path d="M 195 169 L 236 169 L 236 217.449219 L 195 217.449219 Z M 195 169 " clip-rule="nonzero"/></clipPath></defs><rect x="-37.5" width="450" fill="#ffffff" y="-37.499999" height="449.999989" fill-opacity="1"/><rect x="-37.5" width="450" fill="#ffffff" y="-37.499999" height="449.999989" fill-opacity="1"/><rect x="-37.5" width="450" fill="#ffffff" y="-37.499999" height="449.999989" fill-opacity="1"/><rect x="-37.5" width="450" fill="#ffffff" y="-37.499999" height="449.999989" fill-opacity="1"/><g clip-path="url(#id1)"><path fill="#ffdc5c" d="M 243.945312 217.445312 L 131.070312 217.445312 C 126.632812 217.445312 123.007812 213.828125 123.007812 209.402344 L 123.007812 112.910156 L 252.007812 112.910156 L 252.007812 209.402344 C 252.007812 213.828125 248.378906 217.445312 243.945312 217.445312 Z M 243.945312 217.445312 " fill-opacity="1" fill-rule="nonzero"/></g><g clip-path="url(#id2)"><path fill="#275f70" d="M 123.007812 153.117188 C 114.136719 153.117188 106.882812 145.878906 106.882812 137.035156 L 106.882812 112.910156 L 139.132812 112.910156 L 139.132812 137.035156 C 139.132812 145.878906 131.875 153.117188 123.007812 153.117188 Z M 123.007812 153.117188 " fill-opacity="1" fill-rule="nonzero"/></g><path fill="#f2f2f2" d="M 155.257812 153.117188 C 146.386719 153.117188 139.132812 145.878906 139.132812 137.035156 L 139.132812 112.910156 L 171.382812 112.910156 L 171.382812 137.035156 C 171.382812 145.878906 164.125 153.117188 155.257812 153.117188 Z M 155.257812 153.117188 " fill-opacity="1" fill-rule="nonzero"/><path fill="#275f70" d="M 187.507812 153.117188 C 178.636719 153.117188 171.382812 145.878906 171.382812 137.035156 L 171.382812 112.910156 L 203.632812 112.910156 L 203.632812 137.035156 C 203.632812 145.878906 196.375 153.117188 187.507812 153.117188 Z M 187.507812 153.117188 " fill-opacity="1" fill-rule="nonzero"/><path fill="#f2f2f2" d="M 219.757812 153.117188 C 210.886719 153.117188 203.632812 145.878906 203.632812 137.035156 L 203.632812 112.910156 L 235.882812 112.910156 L 235.882812 137.035156 C 235.882812 145.878906 228.625 153.117188 219.757812 153.117188 Z M 219.757812 153.117188 " fill-opacity="1" fill-rule="nonzero"/><g clip-path="url(#id3)"><path fill="#275f70" d="M 252.007812 153.117188 C 243.136719 153.117188 235.882812 145.878906 235.882812 137.035156 L 235.882812 112.910156 L 268.132812 112.910156 L 268.132812 137.035156 C 268.132812 145.878906 260.875 153.117188 252.007812 153.117188 Z M 252.007812 153.117188 " fill-opacity="1" fill-rule="nonzero"/></g><g clip-path="url(#id4)"><path fill="#275f70" d="M 139.132812 112.910156 L 106.882812 112.910156 L 125.828125 77.128906 C 127.039062 74.3125 129.859375 72.703125 133.085938 72.703125 L 152.03125 72.703125 Z M 139.132812 112.910156 " fill-opacity="1" fill-rule="nonzero"/></g><g clip-path="url(#id5)"><path fill="#f2f2f2" d="M 171.382812 112.910156 L 139.132812 112.910156 L 152.03125 72.703125 L 175.816406 72.703125 Z M 171.382812 112.910156 " fill-opacity="1" fill-rule="nonzero"/></g><g clip-path="url(#id6)"><path fill="#275f70" d="M 203.632812 112.910156 L 171.382812 112.910156 L 175.816406 72.703125 L 199.195312 72.703125 Z M 203.632812 112.910156 " fill-opacity="1" fill-rule="nonzero"/></g><g clip-path="url(#id7)"><path fill="#f2f2f2" d="M 235.882812 112.910156 L 203.632812 112.910156 L 199.195312 72.703125 L 222.980469 72.703125 Z M 235.882812 112.910156 " fill-opacity="1" fill-rule="nonzero"/></g><g clip-path="url(#id8)"><path fill="#275f70" d="M 268.132812 112.910156 L 235.882812 112.910156 L 222.980469 72.703125 L 241.929688 72.703125 C 244.75 72.703125 247.570312 74.3125 249.183594 77.128906 Z M 268.132812 112.910156 " fill-opacity="1" fill-rule="nonzero"/></g><g clip-path="url(#id9)"><path fill="#eda155" d="M 235.882812 217.445312 L 195.570312 217.445312 L 195.570312 189.300781 C 195.570312 178.042969 204.4375 169.199219 215.726562 169.199219 C 227.011719 169.199219 235.882812 178.042969 235.882812 189.300781 Z M 235.882812 217.445312 " fill-opacity="1" fill-rule="nonzero"/></g><path fill="#f2f2f2" d="M 147.195312 205.382812 C 145.984375 205.382812 144.773438 204.578125 143.96875 203.773438 L 135.90625 191.714844 C 134.695312 189.703125 135.101562 187.289062 137.117188 186.085938 C 139.132812 184.878906 141.550781 185.28125 142.757812 187.289062 L 150.820312 199.351562 C 152.03125 201.363281 151.628906 203.773438 149.613281 204.980469 C 148.804688 204.980469 148 205.382812 147.195312 205.382812 Z M 147.195312 205.382812 " fill-opacity="1" fill-rule="nonzero"/><path fill="#f2f2f2" d="M 163.320312 205.382812 C 162.109375 205.382812 160.898438 204.980469 160.09375 203.773438 L 139.9375 175.632812 C 138.726562 174.023438 139.132812 171.207031 140.742188 170.003906 C 142.355469 168.796875 145.179688 169.199219 146.386719 170.804688 L 166.542969 198.949219 C 167.753906 200.558594 167.351562 203.375 165.738281 204.578125 C 164.929688 204.980469 164.125 205.382812 163.320312 205.382812 Z M 163.320312 205.382812 " fill-opacity="1" fill-rule="nonzero"/><g fill="#275f70" fill-opacity="1"><g transform="translate(69.439384, 271.408797)"><g><path d="M 25.007812 -29.808594 C 25.007812 -32.0625 23.566406 -33.265625 20.929688 -33.265625 L 7.679688 -33.265625 C 5.039062 -33.265625 3.601562 -31.824219 3.648438 -29.183594 C 3.648438 -25.007812 3.695312 -20.832031 3.695312 -16.65625 C 3.695312 -12.480469 3.648438 -8.304688 3.648438 -4.078125 C 3.601562 -1.441406 5.039062 0 7.679688 0 L 8.542969 0 C 11.183594 0 12.625 -1.441406 12.574219 -4.078125 C 12.574219 -7.007812 12.574219 -9.886719 12.574219 -12.769531 C 14.785156 -12.71875 16.992188 -12.71875 19.105469 -12.671875 C 21.742188 -12.671875 23.183594 -13.824219 23.183594 -15.9375 C 23.183594 -18 21.742188 -19.152344 19.105469 -19.152344 C 16.992188 -19.105469 14.785156 -19.105469 12.574219 -19.054688 L 12.574219 -26.398438 C 15.40625 -26.351562 18.335938 -26.351562 20.929688 -26.304688 C 23.566406 -26.304688 25.007812 -27.550781 25.007812 -29.808594 Z M 25.007812 -29.808594 "/></g></g></g><g fill="#275f70" fill-opacity="1"><g transform="translate(96.415338, 271.408797)"><g><path d="M 6.816406 -29.902344 C 10.367188 -29.902344 11.808594 -31.105469 11.808594 -33.984375 C 11.808594 -36.863281 10.367188 -38.0625 6.816406 -38.0625 C 3.265625 -38.0625 1.824219 -36.863281 1.824219 -33.984375 C 1.824219 -31.105469 3.265625 -29.902344 6.816406 -29.902344 Z M 6.960938 0 C 9.601562 0 10.992188 -1.441406 10.945312 -4.078125 C 10.945312 -6.816406 10.894531 -9.503906 10.945312 -12.289062 C 10.992188 -15.214844 10.992188 -19.105469 10.992188 -22.464844 C 10.992188 -25.105469 9.550781 -26.542969 6.910156 -26.542969 L 6.863281 -26.542969 C 4.222656 -26.542969 2.785156 -25.105469 2.785156 -22.511719 C 2.832031 -19.488281 2.832031 -15.265625 2.878906 -8.160156 L 2.878906 -4.078125 C 2.878906 -1.441406 4.320312 0 6.960938 0 Z M 6.960938 0 "/></g></g></g><g fill="#275f70" fill-opacity="1"><g transform="translate(110.04731, 271.408797)"><g><path d="M 26.6875 -4.128906 C 26.640625 -8.449219 26.542969 -12.480469 26.640625 -15.839844 C 26.832031 -23.761719 24.289062 -26.976562 19.246094 -26.976562 C 15.550781 -26.976562 12.71875 -25.390625 10.894531 -22.03125 L 10.753906 -22.03125 C 10.753906 -22.992188 10.753906 -23.710938 10.753906 -24.335938 C 10.800781 -25.777344 9.359375 -26.59375 6.816406 -26.59375 C 4.222656 -26.59375 2.785156 -25.152344 2.785156 -22.511719 C 2.832031 -19.441406 2.878906 -16.414062 2.878906 -13.246094 C 2.878906 -10.128906 2.832031 -7.152344 2.785156 -4.078125 C 2.785156 -1.441406 4.222656 0 6.863281 0 L 7.152344 0 C 9.792969 0 11.230469 -1.441406 11.230469 -4.078125 C 11.183594 -7.152344 11.136719 -10.128906 11.183594 -13.246094 C 11.183594 -14.59375 11.230469 -15.984375 11.230469 -17.28125 C 12 -19.007812 13.390625 -20.015625 15.214844 -20.0625 C 17.375 -20.113281 18.480469 -19.054688 18.480469 -15.9375 C 18.480469 -12.625 18.433594 -8.542969 18.382812 -4.128906 C 18.382812 -1.441406 19.824219 0 22.464844 0 L 22.609375 0 C 25.246094 0 26.6875 -1.441406 26.6875 -4.128906 Z M 26.6875 -4.128906 "/></g></g></g><g fill="#275f70" fill-opacity="1"><g transform="translate(139.519255, 271.408797)"><g><path d="M 14.113281 0.480469 C 20.015625 0.480469 23.617188 -1.199219 24.769531 -4.753906 C 25.488281 -6.910156 23.710938 -8.257812 21.214844 -8.257812 C 19.152344 -8.257812 18.960938 -6.910156 17.136719 -5.710938 C 16.464844 -5.328125 15.457031 -5.089844 14.160156 -5.089844 C 11.664062 -5.089844 9.839844 -6.289062 9.648438 -11.230469 L 24.960938 -11.230469 C 25.34375 -11.230469 25.632812 -11.519531 25.679688 -12 C 26.59375 -20.929688 23.039062 -26.976562 14.113281 -26.976562 C 5.808594 -26.976562 1.726562 -22.511719 1.726562 -13.679688 C 1.726562 -4.222656 5.519531 0.480469 14.113281 0.480469 Z M 9.695312 -15.742188 C 9.601562 -19.632812 11.230469 -21.503906 13.726562 -21.503906 C 16.511719 -21.503906 17.664062 -19.585938 17.566406 -15.742188 Z M 9.695312 -15.742188 "/></g></g></g><g fill="#275f70" fill-opacity="1"><g transform="translate(167.26321, 271.408797)"><g/></g></g><g fill="#275f70" fill-opacity="1"><g transform="translate(179.263186, 271.408797)"><g><path d="M 14.0625 0.480469 C 22.703125 0.480469 27.167969 -2.976562 27.167969 -9.601562 C 27.167969 -21.121094 11.136719 -16.128906 11.136719 -23.902344 C 11.136719 -26.207031 12.046875 -27.742188 14.832031 -27.742188 C 17.136719 -27.742188 18.480469 -27.070312 18.910156 -25.054688 C 19.488281 -22.367188 20.257812 -20.929688 22.703125 -20.929688 C 25.152344 -20.929688 26.832031 -22.273438 26.640625 -24.910156 C 26.207031 -30.574219 22.464844 -33.742188 14.976562 -33.742188 C 7.246094 -33.742188 2.832031 -30.910156 2.832031 -23.710938 C 2.832031 -11.953125 18.144531 -15.695312 18.144531 -9.023438 C 18.144531 -7.054688 16.945312 -6.097656 14.351562 -6.097656 C 12.816406 -6.097656 11.710938 -6.382812 10.992188 -7.054688 C 9.359375 -8.832031 8.929688 -10.222656 6.625 -10.222656 L 6.191406 -10.222656 C 3.742188 -10.222656 1.921875 -8.6875 2.640625 -6.046875 C 3.839844 -1.777344 7.679688 0.480469 14.0625 0.480469 Z M 14.0625 0.480469 "/></g></g></g><g fill="#275f70" fill-opacity="1"><g transform="translate(208.303139, 271.408797)"><g><path d="M 15.214844 -5.808594 C 12.910156 -5.761719 11.902344 -7.054688 11.902344 -9.839844 C 11.902344 -12.335938 11.855469 -15.167969 11.953125 -17.902344 C 11.953125 -18.769531 12 -19.585938 12 -20.449219 L 15.742188 -20.496094 C 18.144531 -20.496094 19.441406 -21.550781 19.441406 -23.519531 C 19.441406 -25.488281 18 -26.542969 15.359375 -26.542969 L 12 -26.542969 L 12 -30.769531 C 12 -33.3125 10.222656 -34.414062 7.535156 -33.550781 C 5.28125 -32.832031 4.175781 -31.34375 4.175781 -28.945312 C 4.175781 -28.128906 4.222656 -27.359375 4.222656 -26.542969 L 2.207031 -26.542969 C 0.910156 -26.542969 0.144531 -25.441406 0.144531 -23.472656 C 0.144531 -21.503906 1.585938 -20.398438 4.222656 -20.398438 L 4.273438 -20.398438 L 4.273438 -17.902344 C 4.273438 -14.832031 4.273438 -11.710938 4.222656 -8.878906 C 4.078125 -1.921875 7.921875 0.574219 13.871094 0.574219 C 14.976562 0.574219 16.078125 0.480469 17.039062 0.289062 C 19.152344 -0.144531 19.96875 -1.726562 19.777344 -3.792969 C 19.585938 -5.761719 18 -5.902344 15.214844 -5.808594 Z M 15.214844 -5.808594 "/></g></g></g><g fill="#275f70" fill-opacity="1"><g transform="translate(228.943107, 271.408797)"><g><path d="M 14.0625 0.574219 C 22.222656 0.574219 26.207031 -3.984375 26.207031 -13.199219 C 26.207031 -22.367188 22.222656 -26.976562 14.0625 -26.976562 C 5.808594 -26.976562 1.726562 -22.367188 1.726562 -13.199219 C 1.726562 -3.984375 5.808594 0.574219 14.0625 0.574219 Z M 14.0625 -5.28125 C 11.617188 -5.28125 9.9375 -6.816406 9.9375 -13.199219 C 9.9375 -19.054688 11.039062 -21.121094 14.0625 -21.121094 C 16.847656 -21.121094 18 -19.054688 18 -13.199219 C 18 -6.816406 16.320312 -5.28125 14.0625 -5.28125 Z M 14.0625 -5.28125 "/></g></g></g><g fill="#275f70" fill-opacity="1"><g transform="translate(256.87906, 271.408797)"><g><path d="M 18.046875 -26.929688 C 17.761719 -26.976562 17.375 -27.023438 16.847656 -27.023438 C 13.679688 -27.023438 11.472656 -24.238281 10.703125 -20.304688 L 10.558594 -20.398438 L 10.558594 -23.519531 C 10.558594 -25.535156 9.167969 -26.59375 6.671875 -26.59375 C 4.175781 -26.59375 2.785156 -25.152344 2.785156 -22.511719 C 2.832031 -19.441406 2.878906 -16.464844 2.878906 -13.296875 C 2.878906 -10.128906 2.832031 -7.152344 2.785156 -4.078125 C 2.785156 -1.441406 4.222656 0 6.863281 0 L 7.007812 0 C 9.695312 0 11.089844 -1.488281 10.992188 -4.175781 C 10.945312 -6.191406 10.894531 -8.160156 10.894531 -10.128906 C 10.894531 -11.136719 10.945312 -12.238281 10.945312 -13.296875 L 10.945312 -14.449219 C 11.808594 -17.039062 13.296875 -18.433594 15.40625 -18.433594 C 16.128906 -18.433594 16.703125 -18.335938 17.328125 -18.144531 C 18.527344 -17.710938 20.015625 -18.382812 20.640625 -20.878906 C 20.929688 -21.984375 20.976562 -23.136719 20.640625 -24.238281 C 20.015625 -26.113281 18.910156 -26.734375 18.046875 -26.929688 Z M 18.046875 -26.929688 "/></g></g></g><g fill="#275f70" fill-opacity="1"><g transform="translate(277.807029, 271.408797)"><g><path d="M 14.113281 0.480469 C 20.015625 0.480469 23.617188 -1.199219 24.769531 -4.753906 C 25.488281 -6.910156 23.710938 -8.257812 21.214844 -8.257812 C 19.152344 -8.257812 18.960938 -6.910156 17.136719 -5.710938 C 16.464844 -5.328125 15.457031 -5.089844 14.160156 -5.089844 C 11.664062 -5.089844 9.839844 -6.289062 9.648438 -11.230469 L 24.960938 -11.230469 C 25.34375 -11.230469 25.632812 -11.519531 25.679688 -12 C 26.59375 -20.929688 23.039062 -26.976562 14.113281 -26.976562 C 5.808594 -26.976562 1.726562 -22.511719 1.726562 -13.679688 C 1.726562 -4.222656 5.519531 0.480469 14.113281 0.480469 Z M 9.695312 -15.742188 C 9.601562 -19.632812 11.230469 -21.503906 13.726562 -21.503906 C 16.511719 -21.503906 17.664062 -19.585938 17.566406 -15.742188 Z M 9.695312 -15.742188 "/></g></g></g><g fill="#000000" fill-opacity="1"><g transform="translate(87.952842, 296.554111)"><g><path d="M 15.5 -9.921875 L 18.34375 -9.921875 L 13.796875 0 L 10.296875 0 L 9.59375 -4.78125 L 9.703125 -6.203125 L 9.296875 -4.78125 L 7.125 0 L 3.640625 0 L 2.21875 -9.921875 L 5.0625 -9.921875 L 5.984375 -2.734375 L 9.125 -9.921875 L 11.421875 -9.921875 L 12.28125 -2.703125 Z M 15.5 -9.921875 "/></g></g></g><g fill="#000000" fill-opacity="1"><g transform="translate(104.805975, 296.554111)"><g><path d="M 7.40625 -10.203125 C 8.144531 -10.203125 8.796875 -10.050781 9.359375 -9.75 C 9.929688 -9.445312 10.394531 -9.050781 10.75 -8.5625 C 11.113281 -8.082031 11.367188 -7.523438 11.515625 -6.890625 C 11.660156 -6.253906 11.679688 -5.601562 11.578125 -4.9375 C 11.535156 -4.726562 11.484375 -4.515625 11.421875 -4.296875 C 11.367188 -4.085938 11.296875 -3.875 11.203125 -3.65625 L 4.125 -3.65625 C 4.3125 -3.207031 4.628906 -2.828125 5.078125 -2.515625 C 5.535156 -2.203125 6.050781 -2.046875 6.625 -2.046875 C 7.195312 -2.046875 7.703125 -2.085938 8.140625 -2.171875 C 8.585938 -2.265625 9.019531 -2.390625 9.4375 -2.546875 L 10.078125 -0.84375 C 9.535156 -0.488281 8.929688 -0.21875 8.265625 -0.03125 C 7.609375 0.144531 6.921875 0.234375 6.203125 0.234375 C 5.410156 0.234375 4.691406 0.0976562 4.046875 -0.171875 C 3.410156 -0.441406 2.875 -0.8125 2.4375 -1.28125 C 2.007812 -1.75 1.695312 -2.300781 1.5 -2.9375 C 1.3125 -3.582031 1.28125 -4.265625 1.40625 -4.984375 C 1.507812 -5.691406 1.75 -6.359375 2.125 -6.984375 C 2.5 -7.617188 2.953125 -8.171875 3.484375 -8.640625 C 4.023438 -9.117188 4.628906 -9.5 5.296875 -9.78125 C 5.972656 -10.0625 6.675781 -10.203125 7.40625 -10.203125 Z M 8.953125 -5.796875 C 8.890625 -6.367188 8.679688 -6.832031 8.328125 -7.1875 C 7.972656 -7.550781 7.535156 -7.734375 7.015625 -7.734375 C 6.484375 -7.734375 5.96875 -7.550781 5.46875 -7.1875 C 4.976562 -6.832031 4.609375 -6.367188 4.359375 -5.796875 Z M 8.953125 -5.796875 "/></g></g></g><g fill="#000000" fill-opacity="1"><g transform="translate(116.141283, 296.554111)"><g/></g></g><g fill="#000000" fill-opacity="1"><g transform="translate(121.079114, 296.554111)"><g><path d="M 8.015625 -5.203125 C 8.671875 -4.679688 8.921875 -3.941406 8.765625 -2.984375 C 8.691406 -2.535156 8.519531 -2.117188 8.25 -1.734375 C 7.976562 -1.347656 7.640625 -1.007812 7.234375 -0.71875 C 6.835938 -0.425781 6.382812 -0.195312 5.875 -0.03125 C 5.375 0.132812 4.847656 0.21875 4.296875 0.21875 C 3.890625 0.21875 3.5 0.164062 3.125 0.0625 C 2.75 -0.0390625 2.40625 -0.1875 2.09375 -0.375 C 1.789062 -0.5625 1.535156 -0.785156 1.328125 -1.046875 C 1.117188 -1.304688 0.984375 -1.597656 0.921875 -1.921875 C 1.242188 -2.066406 1.601562 -2.226562 2 -2.40625 C 2.394531 -2.59375 2.75 -2.757812 3.0625 -2.90625 C 3.15625 -2.695312 3.3125 -2.507812 3.53125 -2.34375 C 3.757812 -2.175781 4.097656 -2.09375 4.546875 -2.09375 C 4.992188 -2.09375 5.335938 -2.195312 5.578125 -2.40625 C 5.828125 -2.625 5.96875 -2.828125 6 -3.015625 C 6.03125 -3.148438 5.976562 -3.273438 5.84375 -3.390625 C 5.707031 -3.503906 5.550781 -3.59375 5.375 -3.65625 C 5.132812 -3.757812 4.929688 -3.816406 4.765625 -3.828125 C 4.597656 -3.835938 4.40625 -3.875 4.1875 -3.9375 C 3.488281 -4.113281 2.96875 -4.34375 2.625 -4.625 C 2.289062 -4.914062 2.0625 -5.207031 1.9375 -5.5 C 1.820312 -5.789062 1.769531 -6.066406 1.78125 -6.328125 C 1.800781 -6.597656 1.828125 -6.816406 1.859375 -6.984375 C 1.921875 -7.410156 2.078125 -7.816406 2.328125 -8.203125 C 2.578125 -8.585938 2.882812 -8.921875 3.25 -9.203125 C 3.625 -9.492188 4.039062 -9.722656 4.5 -9.890625 C 4.96875 -10.066406 5.445312 -10.15625 5.9375 -10.15625 C 6.769531 -10.15625 7.472656 -9.929688 8.046875 -9.484375 C 8.617188 -9.035156 8.953125 -8.453125 9.046875 -7.734375 L 6.78125 -7.015625 C 6.738281 -7.253906 6.601562 -7.445312 6.375 -7.59375 C 6.15625 -7.738281 5.90625 -7.8125 5.625 -7.8125 C 5.34375 -7.8125 5.097656 -7.71875 4.890625 -7.53125 C 4.691406 -7.351562 4.582031 -7.171875 4.5625 -6.984375 C 4.519531 -6.753906 4.570312 -6.578125 4.71875 -6.453125 C 4.863281 -6.328125 5.03125 -6.238281 5.21875 -6.1875 C 5.363281 -6.15625 5.503906 -6.128906 5.640625 -6.109375 C 5.785156 -6.085938 5.921875 -6.066406 6.046875 -6.046875 C 6.503906 -5.929688 6.890625 -5.804688 7.203125 -5.671875 C 7.523438 -5.546875 7.796875 -5.390625 8.015625 -5.203125 Z M 8.015625 -5.203125 "/></g></g></g><g fill="#000000" fill-opacity="1"><g transform="translate(129.375616, 296.554111)"><g><path d="M 7.40625 -10.203125 C 8.144531 -10.203125 8.796875 -10.050781 9.359375 -9.75 C 9.929688 -9.445312 10.394531 -9.050781 10.75 -8.5625 C 11.113281 -8.082031 11.367188 -7.523438 11.515625 -6.890625 C 11.660156 -6.253906 11.679688 -5.601562 11.578125 -4.9375 C 11.535156 -4.726562 11.484375 -4.515625 11.421875 -4.296875 C 11.367188 -4.085938 11.296875 -3.875 11.203125 -3.65625 L 4.125 -3.65625 C 4.3125 -3.207031 4.628906 -2.828125 5.078125 -2.515625 C 5.535156 -2.203125 6.050781 -2.046875 6.625 -2.046875 C 7.195312 -2.046875 7.703125 -2.085938 8.140625 -2.171875 C 8.585938 -2.265625 9.019531 -2.390625 9.4375 -2.546875 L 10.078125 -0.84375 C 9.535156 -0.488281 8.929688 -0.21875 8.265625 -0.03125 C 7.609375 0.144531 6.921875 0.234375 6.203125 0.234375 C 5.410156 0.234375 4.691406 0.0976562 4.046875 -0.171875 C 3.410156 -0.441406 2.875 -0.8125 2.4375 -1.28125 C 2.007812 -1.75 1.695312 -2.300781 1.5 -2.9375 C 1.3125 -3.582031 1.28125 -4.265625 1.40625 -4.984375 C 1.507812 -5.691406 1.75 -6.359375 2.125 -6.984375 C 2.5 -7.617188 2.953125 -8.171875 3.484375 -8.640625 C 4.023438 -9.117188 4.628906 -9.5 5.296875 -9.78125 C 5.972656 -10.0625 6.675781 -10.203125 7.40625 -10.203125 Z M 8.953125 -5.796875 C 8.890625 -6.367188 8.679688 -6.832031 8.328125 -7.1875 C 7.972656 -7.550781 7.535156 -7.734375 7.015625 -7.734375 C 6.484375 -7.734375 5.96875 -7.550781 5.46875 -7.1875 C 4.976562 -6.832031 4.609375 -6.367188 4.359375 -5.796875 Z M 8.953125 -5.796875 "/></g></g></g><g fill="#000000" fill-opacity="1"><g transform="translate(140.710926, 296.554111)"><g><path d="M 3.28125 -14.625 L 6.046875 -14.625 L 3.734375 0 L 0.984375 0 Z M 3.28125 -14.625 "/></g></g></g><g fill="#000000" fill-opacity="1"><g transform="translate(144.689138, 296.554111)"><g><path d="M 3.28125 -14.625 L 6.046875 -14.625 L 3.734375 0 L 0.984375 0 Z M 3.28125 -14.625 "/></g></g></g><g fill="#000000" fill-opacity="1"><g transform="translate(148.66735, 296.554111)"><g/></g></g><g fill="#000000" fill-opacity="1"><g transform="translate(153.605183, 296.554111)"><g><path d="M 15.5 -9.921875 L 18.34375 -9.921875 L 13.796875 0 L 10.296875 0 L 9.59375 -4.78125 L 9.703125 -6.203125 L 9.296875 -4.78125 L 7.125 0 L 3.640625 0 L 2.21875 -9.921875 L 5.0625 -9.921875 L 5.984375 -2.734375 L 9.125 -9.921875 L 11.421875 -9.921875 L 12.28125 -2.703125 Z M 15.5 -9.921875 "/></g></g></g><g fill="#000000" fill-opacity="1"><g transform="translate(170.458318, 296.554111)"><g><path d="M 8.015625 -10.203125 C 8.671875 -10.203125 9.257812 -10.0625 9.78125 -9.78125 C 10.3125 -9.507812 10.742188 -9.132812 11.078125 -8.65625 C 11.421875 -8.1875 11.660156 -7.632812 11.796875 -7 C 11.929688 -6.375 11.9375 -5.703125 11.8125 -4.984375 C 11.726562 -4.390625 11.640625 -3.800781 11.546875 -3.21875 C 11.453125 -2.632812 11.367188 -2.101562 11.296875 -1.625 C 11.203125 -1.0625 11.117188 -0.519531 11.046875 0 L 8.34375 0 C 8.4375 -0.625 8.53125 -1.226562 8.625 -1.8125 C 8.695312 -2.320312 8.773438 -2.847656 8.859375 -3.390625 C 8.953125 -3.929688 9.03125 -4.394531 9.09375 -4.78125 C 9.15625 -5.15625 9.15625 -5.519531 9.09375 -5.875 C 9.03125 -6.238281 8.914062 -6.554688 8.75 -6.828125 C 8.582031 -7.097656 8.367188 -7.316406 8.109375 -7.484375 C 7.847656 -7.648438 7.554688 -7.734375 7.234375 -7.734375 C 6.929688 -7.734375 6.632812 -7.675781 6.34375 -7.5625 C 6.050781 -7.457031 5.773438 -7.289062 5.515625 -7.0625 C 5.265625 -6.84375 5.046875 -6.566406 4.859375 -6.234375 C 4.679688 -5.898438 4.5625 -5.507812 4.5 -5.0625 L 3.703125 0 L 0.921875 0 L 3.21875 -14.59375 L 6 -14.59375 L 5.140625 -9.15625 C 5.523438 -9.488281 5.957031 -9.742188 6.4375 -9.921875 C 6.914062 -10.109375 7.441406 -10.203125 8.015625 -10.203125 Z M 8.015625 -10.203125 "/></g></g></g><g fill="#000000" fill-opacity="1"><g transform="translate(181.273825, 296.554111)"><g><path d="M 12.84375 -9.921875 L 11.28125 0 L 8.90625 0 L 8.78125 -1.0625 C 8.3125 -0.539062 7.789062 -0.191406 7.21875 -0.015625 C 6.65625 0.148438 6.082031 0.234375 5.5 0.234375 C 4.789062 0.234375 4.160156 0.0976562 3.609375 -0.171875 C 3.054688 -0.441406 2.597656 -0.8125 2.234375 -1.28125 C 1.878906 -1.757812 1.625 -2.316406 1.46875 -2.953125 C 1.3125 -3.585938 1.296875 -4.265625 1.421875 -4.984375 C 1.535156 -5.703125 1.765625 -6.375 2.109375 -7 C 2.460938 -7.632812 2.890625 -8.1875 3.390625 -8.65625 C 3.898438 -9.132812 4.472656 -9.507812 5.109375 -9.78125 C 5.753906 -10.0625 6.429688 -10.203125 7.140625 -10.203125 C 7.773438 -10.203125 8.34375 -10.097656 8.84375 -9.890625 C 9.34375 -9.691406 9.734375 -9.375 10.015625 -8.9375 L 10.453125 -9.921875 Z M 9.296875 -4.9375 C 9.378906 -5.457031 9.375 -5.894531 9.28125 -6.25 C 9.195312 -6.601562 9.054688 -6.890625 8.859375 -7.109375 C 8.660156 -7.328125 8.414062 -7.484375 8.125 -7.578125 C 7.832031 -7.679688 7.503906 -7.734375 7.140625 -7.734375 C 6.773438 -7.734375 6.421875 -7.660156 6.078125 -7.515625 C 5.742188 -7.367188 5.441406 -7.171875 5.171875 -6.921875 C 4.898438 -6.679688 4.664062 -6.390625 4.46875 -6.046875 C 4.28125 -5.710938 4.15625 -5.359375 4.09375 -4.984375 C 4.03125 -4.597656 4.039062 -4.238281 4.125 -3.90625 C 4.21875 -3.570312 4.359375 -3.28125 4.546875 -3.03125 C 4.742188 -2.78125 4.988281 -2.582031 5.28125 -2.4375 C 5.570312 -2.289062 5.898438 -2.21875 6.265625 -2.21875 C 6.617188 -2.21875 6.957031 -2.273438 7.28125 -2.390625 C 7.613281 -2.503906 7.914062 -2.671875 8.1875 -2.890625 C 8.457031 -3.109375 8.691406 -3.382812 8.890625 -3.71875 C 9.085938 -4.0625 9.222656 -4.46875 9.296875 -4.9375 Z M 9.296875 -4.9375 "/></g></g></g><g fill="#000000" fill-opacity="1"><g transform="translate(192.86903, 296.554111)"><g><path d="M 5.125 -3.5625 C 5.039062 -3.09375 5.117188 -2.726562 5.359375 -2.46875 C 5.609375 -2.21875 5.96875 -2.09375 6.4375 -2.09375 C 6.613281 -2.09375 6.796875 -2.109375 6.984375 -2.140625 C 7.179688 -2.179688 7.382812 -2.238281 7.59375 -2.3125 L 7.234375 0 C 6.890625 0.101562 6.519531 0.191406 6.125 0.265625 C 5.738281 0.335938 5.359375 0.375 4.984375 0.375 C 4.554688 0.375 4.15625 0.320312 3.78125 0.21875 C 3.40625 0.113281 3.085938 -0.0664062 2.828125 -0.328125 C 2.566406 -0.585938 2.378906 -0.929688 2.265625 -1.359375 C 2.148438 -1.796875 2.148438 -2.335938 2.265625 -2.984375 L 2.984375 -7.453125 L 1.5625 -7.453125 L 1.84375 -9.3125 L 3.359375 -9.921875 L 3.71875 -12.140625 L 6.484375 -12.140625 L 6.125 -9.921875 L 8.796875 -9.921875 L 8.421875 -7.453125 L 5.734375 -7.453125 Z M 5.125 -3.5625 "/></g></g></g><g fill="#000000" fill-opacity="1"><g transform="translate(199.966003, 296.554111)"><g/></g></g><g fill="#000000" fill-opacity="1"><g transform="translate(204.903831, 296.554111)"><g><path d="M 10.125 -9.921875 L 13.140625 -9.921875 L 4.6875 3.953125 L 1.65625 3.953125 L 4.984375 -1.5 L 2.125 -9.921875 L 5.203125 -9.921875 L 6.953125 -4.734375 Z M 10.125 -9.921875 "/></g></g></g><g fill="#000000" fill-opacity="1"><g transform="translate(216.159163, 296.554111)"><g><path d="M 7.375 -10.203125 C 8.082031 -10.203125 8.726562 -10.0625 9.3125 -9.78125 C 9.90625 -9.507812 10.394531 -9.132812 10.78125 -8.65625 C 11.175781 -8.1875 11.460938 -7.632812 11.640625 -7 C 11.816406 -6.375 11.84375 -5.703125 11.71875 -4.984375 C 11.601562 -4.265625 11.359375 -3.585938 10.984375 -2.953125 C 10.617188 -2.316406 10.164062 -1.757812 9.625 -1.28125 C 9.082031 -0.8125 8.472656 -0.441406 7.796875 -0.171875 C 7.128906 0.0976562 6.441406 0.234375 5.734375 0.234375 C 5.015625 0.234375 4.363281 0.0976562 3.78125 -0.171875 C 3.195312 -0.441406 2.707031 -0.8125 2.3125 -1.28125 C 1.914062 -1.757812 1.628906 -2.316406 1.453125 -2.953125 C 1.285156 -3.585938 1.257812 -4.265625 1.375 -4.984375 C 1.5 -5.703125 1.742188 -6.375 2.109375 -7 C 2.472656 -7.632812 2.925781 -8.1875 3.46875 -8.65625 C 4.019531 -9.132812 4.628906 -9.507812 5.296875 -9.78125 C 5.960938 -10.0625 6.65625 -10.203125 7.375 -10.203125 Z M 6.125 -2.1875 C 6.457031 -2.1875 6.773438 -2.25 7.078125 -2.375 C 7.390625 -2.507812 7.671875 -2.691406 7.921875 -2.921875 C 8.171875 -3.160156 8.382812 -3.441406 8.5625 -3.765625 C 8.75 -4.097656 8.875 -4.460938 8.9375 -4.859375 C 9.007812 -5.253906 9.003906 -5.625 8.921875 -5.96875 C 8.847656 -6.320312 8.722656 -6.628906 8.546875 -6.890625 C 8.378906 -7.148438 8.160156 -7.351562 7.890625 -7.5 C 7.628906 -7.65625 7.332031 -7.734375 7 -7.734375 C 6.664062 -7.734375 6.335938 -7.65625 6.015625 -7.5 C 5.703125 -7.351562 5.414062 -7.148438 5.15625 -6.890625 C 4.894531 -6.628906 4.671875 -6.320312 4.484375 -5.96875 C 4.304688 -5.625 4.1875 -5.253906 4.125 -4.859375 C 4.050781 -4.460938 4.050781 -4.097656 4.125 -3.765625 C 4.195312 -3.441406 4.328125 -3.160156 4.515625 -2.921875 C 4.703125 -2.691406 4.929688 -2.507812 5.203125 -2.375 C 5.484375 -2.25 5.789062 -2.1875 6.125 -2.1875 Z M 6.125 -2.1875 "/></g></g></g><g fill="#000000" fill-opacity="1"><g transform="translate(227.074628, 296.554111)"><g><path d="M 8.734375 -9.921875 L 11.5 -9.921875 L 9.9375 0 L 7.578125 0 L 7.296875 -0.765625 C 6.941406 -0.535156 6.550781 -0.347656 6.125 -0.203125 C 5.695312 -0.0664062 5.25 0 4.78125 0 C 4.414062 0 4.015625 -0.0507812 3.578125 -0.15625 C 3.140625 -0.257812 2.738281 -0.457031 2.375 -0.75 C 2.019531 -1.050781 1.742188 -1.460938 1.546875 -1.984375 C 1.359375 -2.503906 1.328125 -3.175781 1.453125 -4 L 2.40625 -9.921875 L 5.1875 -9.921875 L 4.265625 -4.09375 C 4.210938 -3.789062 4.21875 -3.53125 4.28125 -3.3125 C 4.34375 -3.101562 4.445312 -2.9375 4.59375 -2.8125 C 4.738281 -2.6875 4.914062 -2.59375 5.125 -2.53125 C 5.332031 -2.46875 5.550781 -2.4375 5.78125 -2.4375 C 5.957031 -2.4375 6.148438 -2.46875 6.359375 -2.53125 C 6.578125 -2.59375 6.785156 -2.6875 6.984375 -2.8125 C 7.179688 -2.945312 7.359375 -3.117188 7.515625 -3.328125 C 7.679688 -3.546875 7.78125 -3.800781 7.8125 -4.09375 Z M 8.734375 -9.921875 "/></g></g></g><g fill="#000000" fill-opacity="1"><g transform="translate(237.370339, 296.554111)"><g/></g></g><g fill="#000000" fill-opacity="1"><g transform="translate(242.308167, 296.554111)"><g><path d="M 7.625 -9.921875 C 8 -9.921875 8.40625 -9.863281 8.84375 -9.75 C 9.28125 -9.644531 9.675781 -9.445312 10.03125 -9.15625 C 10.382812 -8.863281 10.65625 -8.457031 10.84375 -7.9375 C 11.03125 -7.414062 11.054688 -6.742188 10.921875 -5.921875 L 10 0 L 7.21875 0 L 8.140625 -5.8125 C 8.179688 -6.125 8.164062 -6.382812 8.09375 -6.59375 C 8.03125 -6.8125 7.925781 -6.984375 7.78125 -7.109375 C 7.644531 -7.234375 7.472656 -7.328125 7.265625 -7.390625 C 7.054688 -7.453125 6.847656 -7.484375 6.640625 -7.484375 C 6.460938 -7.484375 6.265625 -7.453125 6.046875 -7.390625 C 5.835938 -7.328125 5.632812 -7.226562 5.4375 -7.09375 C 5.238281 -6.96875 5.054688 -6.796875 4.890625 -6.578125 C 4.734375 -6.367188 4.632812 -6.113281 4.59375 -5.8125 L 3.6875 0 L 0.921875 0 L 2.484375 -9.921875 L 4.84375 -9.921875 L 5.125 -9.15625 C 5.476562 -9.382812 5.863281 -9.566406 6.28125 -9.703125 C 6.707031 -9.847656 7.15625 -9.921875 7.625 -9.921875 Z M 7.625 -9.921875 "/></g></g></g><g fill="#000000" fill-opacity="1"><g transform="translate(252.563892, 296.554111)"><g><path d="M 7.40625 -10.203125 C 8.144531 -10.203125 8.796875 -10.050781 9.359375 -9.75 C 9.929688 -9.445312 10.394531 -9.050781 10.75 -8.5625 C 11.113281 -8.082031 11.367188 -7.523438 11.515625 -6.890625 C 11.660156 -6.253906 11.679688 -5.601562 11.578125 -4.9375 C 11.535156 -4.726562 11.484375 -4.515625 11.421875 -4.296875 C 11.367188 -4.085938 11.296875 -3.875 11.203125 -3.65625 L 4.125 -3.65625 C 4.3125 -3.207031 4.628906 -2.828125 5.078125 -2.515625 C 5.535156 -2.203125 6.050781 -2.046875 6.625 -2.046875 C 7.195312 -2.046875 7.703125 -2.085938 8.140625 -2.171875 C 8.585938 -2.265625 9.019531 -2.390625 9.4375 -2.546875 L 10.078125 -0.84375 C 9.535156 -0.488281 8.929688 -0.21875 8.265625 -0.03125 C 7.609375 0.144531 6.921875 0.234375 6.203125 0.234375 C 5.410156 0.234375 4.691406 0.0976562 4.046875 -0.171875 C 3.410156 -0.441406 2.875 -0.8125 2.4375 -1.28125 C 2.007812 -1.75 1.695312 -2.300781 1.5 -2.9375 C 1.3125 -3.582031 1.28125 -4.265625 1.40625 -4.984375 C 1.507812 -5.691406 1.75 -6.359375 2.125 -6.984375 C 2.5 -7.617188 2.953125 -8.171875 3.484375 -8.640625 C 4.023438 -9.117188 4.628906 -9.5 5.296875 -9.78125 C 5.972656 -10.0625 6.675781 -10.203125 7.40625 -10.203125 Z M 8.953125 -5.796875 C 8.890625 -6.367188 8.679688 -6.832031 8.328125 -7.1875 C 7.972656 -7.550781 7.535156 -7.734375 7.015625 -7.734375 C 6.484375 -7.734375 5.96875 -7.550781 5.46875 -7.1875 C 4.976562 -6.832031 4.609375 -6.367188 4.359375 -5.796875 Z M 8.953125 -5.796875 "/></g></g></g><g fill="#000000" fill-opacity="1"><g transform="translate(263.899196, 296.554111)"><g><path d="M 7.40625 -10.203125 C 8.144531 -10.203125 8.796875 -10.050781 9.359375 -9.75 C 9.929688 -9.445312 10.394531 -9.050781 10.75 -8.5625 C 11.113281 -8.082031 11.367188 -7.523438 11.515625 -6.890625 C 11.660156 -6.253906 11.679688 -5.601562 11.578125 -4.9375 C 11.535156 -4.726562 11.484375 -4.515625 11.421875 -4.296875 C 11.367188 -4.085938 11.296875 -3.875 11.203125 -3.65625 L 4.125 -3.65625 C 4.3125 -3.207031 4.628906 -2.828125 5.078125 -2.515625 C 5.535156 -2.203125 6.050781 -2.046875 6.625 -2.046875 C 7.195312 -2.046875 7.703125 -2.085938 8.140625 -2.171875 C 8.585938 -2.265625 9.019531 -2.390625 9.4375 -2.546875 L 10.078125 -0.84375 C 9.535156 -0.488281 8.929688 -0.21875 8.265625 -0.03125 C 7.609375 0.144531 6.921875 0.234375 6.203125 0.234375 C 5.410156 0.234375 4.691406 0.0976562 4.046875 -0.171875 C 3.410156 -0.441406 2.875 -0.8125 2.4375 -1.28125 C 2.007812 -1.75 1.695312 -2.300781 1.5 -2.9375 C 1.3125 -3.582031 1.28125 -4.265625 1.40625 -4.984375 C 1.507812 -5.691406 1.75 -6.359375 2.125 -6.984375 C 2.5 -7.617188 2.953125 -8.171875 3.484375 -8.640625 C 4.023438 -9.117188 4.628906 -9.5 5.296875 -9.78125 C 5.972656 -10.0625 6.675781 -10.203125 7.40625 -10.203125 Z M 8.953125 -5.796875 C 8.890625 -6.367188 8.679688 -6.832031 8.328125 -7.1875 C 7.972656 -7.550781 7.535156 -7.734375 7.015625 -7.734375 C 6.484375 -7.734375 5.96875 -7.550781 5.46875 -7.1875 C 4.976562 -6.832031 4.609375 -6.367188 4.359375 -5.796875 Z M 8.953125 -5.796875 "/></g></g></g><g fill="#000000" fill-opacity="1"><g transform="translate(275.234499, 296.554111)"><g><path d="M 13.203125 -14.59375 L 10.90625 0 L 8.546875 0 L 8.265625 -0.859375 C 7.898438 -0.535156 7.429688 -0.269531 6.859375 -0.0625 C 6.296875 0.132812 5.722656 0.234375 5.140625 0.234375 C 4.429688 0.234375 3.800781 0.0976562 3.25 -0.171875 C 2.695312 -0.441406 2.234375 -0.8125 1.859375 -1.28125 C 1.492188 -1.757812 1.238281 -2.316406 1.09375 -2.953125 C 0.945312 -3.585938 0.9375 -4.265625 1.0625 -4.984375 C 1.175781 -5.703125 1.40625 -6.375 1.75 -7 C 2.09375 -7.632812 2.519531 -8.1875 3.03125 -8.65625 C 3.539062 -9.132812 4.113281 -9.507812 4.75 -9.78125 C 5.394531 -10.0625 6.070312 -10.203125 6.78125 -10.203125 C 7.40625 -10.203125 7.953125 -10.128906 8.421875 -9.984375 C 8.890625 -9.835938 9.28125 -9.585938 9.59375 -9.234375 L 10.4375 -14.59375 Z M 8.921875 -4.9375 C 9.003906 -5.457031 9.003906 -5.894531 8.921875 -6.25 C 8.835938 -6.601562 8.695312 -6.890625 8.5 -7.109375 C 8.300781 -7.328125 8.050781 -7.484375 7.75 -7.578125 C 7.445312 -7.679688 7.117188 -7.734375 6.765625 -7.734375 C 6.398438 -7.734375 6.050781 -7.660156 5.71875 -7.515625 C 5.382812 -7.367188 5.082031 -7.171875 4.8125 -6.921875 C 4.539062 -6.679688 4.304688 -6.390625 4.109375 -6.046875 C 3.910156 -5.710938 3.785156 -5.359375 3.734375 -4.984375 C 3.671875 -4.597656 3.679688 -4.238281 3.765625 -3.90625 C 3.859375 -3.570312 4 -3.28125 4.1875 -3.03125 C 4.382812 -2.78125 4.625 -2.582031 4.90625 -2.4375 C 5.195312 -2.289062 5.519531 -2.21875 5.875 -2.21875 C 6.59375 -2.21875 7.238281 -2.441406 7.8125 -2.890625 C 8.394531 -3.335938 8.765625 -4.019531 8.921875 -4.9375 Z M 8.921875 -4.9375 "/></g></g></g></svg>